<svg width="140" height="26" viewBox="0 0 140 26" fill="none" xmlns="http://www.w3.org/2000/svg">
<g clip-path="url(#clip0_156_7)">
<path d="M61.3252 11.7299L57.5125 12.749C57.0673 11.1443 55.9136 10.3419 54.0511 10.3419C52.294 10.3419 51.4156 10.8749 51.4156 11.9409C51.4156 12.3626 51.5737 12.7022 51.89 12.9599C52.2179 13.2059 53.0613 13.4167 54.4201 13.5924C56.4465 13.8618 57.9459 14.1722 58.9181 14.5236C59.8902 14.875 60.6575 15.4666 61.2197 16.2983C61.7937 17.1299 62.0807 18.1548 62.0807 19.373C62.0807 21.2003 61.3838 22.6879 59.9899 23.8359C58.6076 24.9838 56.6691 25.5578 54.1741 25.5578C49.6527 25.5578 46.9527 23.8066 46.0742 20.3042L50.4844 19.6541C50.8475 21.2472 52.1593 22.0437 54.4201 22.0437C55.2869 22.0437 56.0189 21.8914 56.6164 21.5869C57.2137 21.2706 57.5125 20.8489 57.5125 20.3219C57.5125 19.5019 56.8506 19.0158 55.527 18.8635C51.9426 18.4184 49.5824 17.7332 48.4461 16.8078C47.3216 15.8706 46.7594 14.5705 46.7594 12.9071C46.7594 11.2204 47.4154 9.82652 48.7272 8.72545C50.0392 7.62438 51.8782 7.07384 54.2444 7.07384C56.1186 7.07384 57.6179 7.44282 58.7424 8.18077C59.8669 8.91872 60.7278 10.1018 61.3252 11.7299ZM69.813 11.5192V19.0216C69.813 19.9588 69.9536 20.5853 70.2347 20.9017C70.5159 21.218 71.1776 21.3761 72.2201 21.3761C72.7004 21.3761 73.2568 21.3526 73.8894 21.3058V25.1888C72.3666 25.4465 71.2714 25.5754 70.6037 25.5754C68.425 25.5754 66.8788 25.1596 65.9651 24.3279C65.0515 23.4845 64.5947 21.9676 64.5947 19.7772V11.5192H61.7835V7.44282H64.8934L65.3151 2.20687L69.813 1.85547V7.44282H73.6433V11.5192H69.813ZM90.9515 25.1888H85.8737C85.7097 24.486 85.6276 23.5606 85.6276 22.4126C84.7375 23.6777 83.8472 24.5211 82.957 24.9428C82.0785 25.3528 81.077 25.5578 79.9525 25.5578C78.2892 25.5578 76.9421 25.1068 75.9113 24.2049C74.8923 23.3029 74.3827 22.0906 74.3827 20.5678C74.3827 19.455 74.6815 18.4301 75.2788 17.493C75.8762 16.5559 76.8367 15.8239 78.1603 15.2967C79.484 14.758 81.8969 14.3597 85.3993 14.1019V13.0829C85.3993 11.361 84.5383 10.5 82.8164 10.5C80.9774 10.5 79.9525 11.361 79.7417 13.0829L74.9098 12.626C75.226 10.6113 76.1807 9.18227 77.7738 8.3389C79.3668 7.49552 81.1707 7.07384 83.1855 7.07384C84.3919 7.07384 85.5281 7.2144 86.594 7.49552C87.66 7.77665 88.4916 8.19833 89.0891 8.76058C89.6864 9.32283 90.0906 9.92023 90.3014 10.5528C90.5122 11.1736 90.6176 12.2629 90.6176 13.8208V21.868C90.6176 23.4142 90.7289 24.5211 90.9515 25.1888ZM85.3993 16.6848C81.733 17.0479 79.8998 18.1548 79.8998 20.0055C79.8998 20.6264 80.0931 21.1652 80.4796 21.622C80.8662 22.0672 81.4167 22.2897 82.1312 22.2897C83.0566 22.2897 83.8297 21.909 84.4505 21.1476C85.0831 20.3746 85.3993 19.4258 85.3993 18.3013V16.6848ZM99.4042 11.5192V19.0216C99.4042 19.9588 99.5448 20.5853 99.8259 20.9017C100.107 21.218 100.769 21.3761 101.811 21.3761C102.292 21.3761 102.848 21.3526 103.481 21.3058V25.1888C101.958 25.4465 100.863 25.5754 100.195 25.5754C98.0161 25.5754 96.4699 25.1596 95.5563 24.3279C94.6426 23.4845 94.1859 21.9676 94.1859 19.7772V11.5192H91.3746V7.44282H94.4845L94.9062 2.20687L99.4042 1.85547V7.44282H103.235V11.5192H99.4042ZM119.892 7.44282V25.1888H115.043V22.1667C114.129 24.4274 112.384 25.5578 109.807 25.5578C108.472 25.5578 107.447 25.3118 106.732 24.8199C106.018 24.3162 105.502 23.6368 105.186 22.7817C104.882 21.9148 104.729 20.6674 104.729 19.0391V7.44282H109.807V19.0391C109.807 20.6322 110.463 21.4287 111.775 21.4287C112.443 21.4287 113.022 21.2414 113.515 20.8665C114.006 20.48 114.317 20.07 114.446 19.6366C114.587 19.2032 114.656 18.4594 114.656 17.4051V7.44282H119.892ZM136.076 11.7299L132.264 12.749C131.818 11.1443 130.665 10.3419 128.803 10.3419C127.045 10.3419 126.167 10.8749 126.167 11.9409C126.167 12.3626 126.325 12.7022 126.641 12.9599C126.968 13.2059 127.812 13.4167 129.171 13.5924C131.198 13.8618 132.697 14.1722 133.669 14.5236C134.641 14.875 135.409 15.4666 135.971 16.2983C136.545 17.1299 136.831 18.1548 136.831 19.373C136.831 21.2003 136.134 22.6879 134.741 23.8359C133.359 24.9838 131.42 25.5578 128.925 25.5578C124.403 25.5578 121.704 23.8066 120.825 20.3042L125.236 19.6541C125.599 21.2472 126.91 22.0437 129.171 22.0437C130.038 22.0437 130.77 21.8914 131.367 21.5869C131.965 21.2706 132.264 20.8489 132.264 20.3219C132.264 19.5019 131.601 19.0158 130.278 18.8635C126.694 18.4184 124.334 17.7332 123.197 16.8078C122.072 15.8706 121.51 14.5705 121.51 12.9071C121.51 11.2204 122.167 9.82652 123.478 8.72545C124.79 7.62438 126.629 7.07384 128.995 7.07384C130.869 7.07384 132.368 7.44282 133.493 8.18077C134.617 8.91872 135.479 10.1018 136.076 11.7299Z" fill="#0D0D0D"/>
<path d="M23.1665 15.9114C23.1665 13.0856 20.8758 10.7949 18.0501 10.7949C15.2243 10.7949 12.9336 13.0856 12.9336 15.9114C12.9336 18.7371 15.2243 21.0279 18.0501 21.0279C20.8758 21.0279 23.1665 18.7371 23.1665 15.9114Z" fill="url(#paint0_linear_156_7)"/>
<path d="M30.9789 10.7949H30.8665C28.0407 10.7949 25.75 13.0856 25.75 15.9114C25.75 18.7371 28.0407 21.0279 30.8665 21.0279H30.9789C33.8047 21.0279 36.0954 18.7371 36.0954 15.9114C36.0954 13.0856 33.8047 10.7949 30.9789 10.7949Z" fill="url(#paint1_linear_156_7)"/>
<path d="M5.22892 10.7949H5.11647C2.29072 10.7949 0 13.0856 0 15.9114C0 18.7371 2.29072 21.0279 5.11647 21.0279H5.22892C8.05466 21.0279 10.3454 18.7371 10.3454 15.9114C10.3454 13.0856 8.05466 10.7949 5.22892 10.7949Z" fill="url(#paint2_linear_156_7)"/>
</g>
<defs>
<linearGradient id="paint0_linear_156_7" x1="18.0501" y1="10.7949" x2="18.0501" y2="21.0279" gradientUnits="userSpaceOnUse">
<stop stop-color="#FEC957"/>
<stop offset="1" stop-color="#F37931"/>
</linearGradient>
<linearGradient id="paint1_linear_156_7" x1="30.9227" y1="10.7949" x2="30.9227" y2="21.0279" gradientUnits="userSpaceOnUse">
<stop stop-color="#FD5192"/>
<stop offset="1" stop-color="#F6333A"/>
</linearGradient>
<linearGradient id="paint2_linear_156_7" x1="5.17269" y1="10.7949" x2="5.17269" y2="21.0279" gradientUnits="userSpaceOnUse">
<stop stop-color="#96D724"/>
<stop offset="1" stop-color="#1DB965"/>
</linearGradient>
<clipPath id="clip0_156_7">
<rect width="140" height="25.6386" fill="white"/>
</clipPath>
</defs>
</svg>
